<svg width="300" height="80" viewBox="0 0 300 80" xmlns="http://www.w3.org/2000/svg">
  <!-- Logo circle (smaller) -->
  <circle cx="40" cy="40" r="35" fill="white" stroke="black" stroke-width="3"/>
  <circle cx="40" cy="40" r="25" fill="white" stroke="black" stroke-width="2"/>
  
  <!-- Game controller shape -->
  <ellipse cx="40" cy="40" rx="18" ry="10" fill="#FF4444" stroke="black" stroke-width="1"/>
  
  <!-- Controller buttons -->
  <circle cx="48" cy="37" r="1.5" fill="black"/>
  <circle cx="52" cy="37" r="1.5" fill="black"/>
  <circle cx="48" cy="43" r="1.5" fill="black"/>
  <circle cx="52" cy="43" r="1.5" fill="black"/>
  
  <!-- Evil eye -->
  <ellipse cx="32" cy="37" rx="3" ry="2.5" fill="black"/>
  <ellipse cx="33" cy="37" rx="1.5" ry="1.5" fill="yellow"/>
  
  <!-- Evil grin -->
  <path d="M 28 45 Q 32 47 36 45" stroke="black" stroke-width="1" fill="none"/>
  <rect x="29" y="44" width="1" height="2" fill="black"/>
  <rect x="31" y="44" width="1" height="2" fill="black"/>
  <rect x="33" y="44" width="1" height="2" fill="black"/>
  <rect x="35" y="44" width="1" height="2" fill="black"/>
  
  <!-- Crown -->
  <path d="M 32 28 L 35 22 L 37 25 L 40 20 L 43 25 L 45 22 L 48 28 Z" fill="gold" stroke="black" stroke-width="0.5"/>
  <circle cx="40" cy="21" r="1" fill="gold"/>
  
  <!-- Text -->
  <text x="90" y="30" font-family="Arial, sans-serif" font-size="24" font-weight="bold" fill="#FF4444">LÀM GAME</text>
  <text x="90" y="50" font-family="Arial, sans-serif" font-size="12" fill="#666">Game Development Learning Platform</text>
  <text x="90" y="65" font-family="Arial, sans-serif" font-size="10" fill="#999">lamgame.vn</text>
</svg>
